<?xml version="1.0" standalone="no"?><!DOCTYPE svg PUBLIC "-//W3C//DTD SVG 1.1//EN" "http://www.w3.org/Graphics/SVG/1.1/DTD/svg11.dtd"><svg t="1500085003954" class="icon" style="" viewBox="0 0 1024 1024" version="1.1" xmlns="http://www.w3.org/2000/svg" p-id="7396" xmlns:xlink="http://www.w3.org/1999/xlink" width="128" height="128"><defs><style type="text/css"></style></defs><path d="M900.192 386.56l-383.232-195.072 128.864-159.136 378.144 203.616-123.808 150.592zM0 232.544l386.624-200.192 123.808 159.136-379.84 195.104-130.56-154.016zM510.176 570.304l-67.84 193.376-379.872-193.376 67.84-183.104 379.872 183.104zM449.952 793.152l57.248-150.592 0 349.088-400.64-187.36 1.248-185.664 342.112 174.528zM976.512 568.544l-393.44 193.376-64.448-191.648 381.568-183.104 76.288 181.408zM920.544 619.904l0 184.384-399.36 187.36 0-349.088 53.024 150.976 346.304-173.664z" p-id="7397" fill="#1296db"></path></svg>