<?xml version="1.0" standalone="no"?><!DOCTYPE svg PUBLIC "-//W3C//DTD SVG 1.1//EN" "http://www.w3.org/Graphics/SVG/1.1/DTD/svg11.dtd"><svg t="1500085840740" class="icon" style="" viewBox="0 0 1024 1024" version="1.1" xmlns="http://www.w3.org/2000/svg" p-id="12002" xmlns:xlink="http://www.w3.org/1999/xlink" width="64" height="64"><defs><style type="text/css"></style></defs><path d="M490.666667 72.746667V512h42.666666V72.746667l161.066667 155.733333L725.333333 198.186667 512 0 298.666667 198.186667l31.36 30.293333L490.666667 72.746667z" fill="#17abe3" p-id="12003"></path><path d="M843.52 341.333333H704v42.666667h116.48l142.293333 213.333333H645.333333l-17.706666 62.293334a120.106667 120.106667 0 0 1-230.826667 0L378.666667 597.333333H61.226667l142.293333-213.333333H320v-42.666667H180.48L0 618.666667l40.533333 244.906666A192 192 0 0 0 229.973333 1024h564.053334a192 192 0 0 0 189.44-160.426667L1024 618.666667z m-49.493333 640H229.973333a149.333333 149.333333 0 0 1-147.2-124.8L46.506667 640h300.16l8.96 31.36a162.773333 162.773333 0 0 0 312.96 0l8.746666-31.36h300.16l-36.053333 216.533333A149.333333 149.333333 0 0 1 794.026667 981.333333z" fill="#17abe3" p-id="12004"></path></svg>