<?xml version="1.0" standalone="no"?><!DOCTYPE svg PUBLIC "-//W3C//DTD SVG 1.1//EN" "http://www.w3.org/Graphics/SVG/1.1/DTD/svg11.dtd"><svg t="1500023870574" class="icon" style="" viewBox="0 0 1024 1024" version="1.1" xmlns="http://www.w3.org/2000/svg" p-id="1002" xmlns:xlink="http://www.w3.org/1999/xlink" width="16" height="16"><defs><style type="text/css"></style></defs><path d="M424.561 800.854c-50.514 0-99.618-9.871-145.773-29.489-44.617-18.847-84.618-45.898-118.977-80.259-34.358-34.358-61.413-74.361-80.259-118.977-19.489-46.154-29.489-95.261-29.489-145.773 0-50.514 9.871-99.618 29.489-145.773 18.847-44.617 45.898-84.618 80.259-118.977 34.358-34.358 74.49-61.413 118.977-80.259 46.154-19.489 95.261-29.489 145.773-29.489s99.618 9.871 145.773 29.489c44.617 18.847 84.618 45.898 118.977 80.259 34.358 34.358 61.413 74.361 80.259 118.977 19.489 46.154 29.489 95.261 29.489 145.773 0 50.514-9.871 99.618-29.489 145.773-18.847 44.617-45.898 84.618-80.259 118.977-34.358 34.358-74.49 61.413-118.977 80.259-46.154 19.616-95.261 29.489-145.773 29.489zM424.561 84.682c-176.415 0-342.958 165.261-342.958 341.677s166.544 341.677 342.958 341.677 342.958-165.261 342.958-341.677c0-176.286-166.544-341.677-342.958-341.677zM887.522 975.732c-22.694 0-43.977-8.719-60.002-24.745l-148.593-143.851c-7.181-7.050-7.438-18.59-0.512-25.77l0.897-0.897c7.050-7.308 18.719-7.565 26.027-0.512l148.72 144.107c5.77 5.77 36.925 29.872 66.797 0 30.898-30.898 6.667-62.054 0.897-67.694l-0.256-0.256-143.851-148.465c-7.050-7.308-6.795-18.975 0.512-26.027 7.308-6.922 18.847-6.667 25.77 0.512l143.851 148.465c16.026 16.026 24.745 37.308 24.745 60.002 0 22.821-8.846 44.103-24.873 60.257-16.026 16.026-37.435 24.873-60.13 24.873z" p-id="1003" fill="#d6d9e0"></path><path d="M246.353 573.027c-6.922 8.206-19.489 8.206-26.41 0-34.873-41.155-54.617-92.182-54.617-146.671 0-53.591 18.206-104.364 51.668-145.26 7.565-9.231 21.795-8.974 28.848 0.641 4.999 6.667 4.745 15.9-0.512 22.308-58.849 72.18-62.18 173.34 0.769 244.879 6.155 6.922 6.281 17.181 0.256 24.103z" p-id="1004" fill="#d6d9e0"></path></svg>