<?xml version="1.0" standalone="no"?><!DOCTYPE svg PUBLIC "-//W3C//DTD SVG 1.1//EN" "http://www.w3.org/Graphics/SVG/1.1/DTD/svg11.dtd"><svg t="1499913031293" class="icon" style="" viewBox="0 0 2128 1024" version="1.1" xmlns="http://www.w3.org/2000/svg" p-id="5695" xmlns:xlink="http://www.w3.org/1999/xlink" width="133" height="64"><defs><style type="text/css"></style></defs><path d="M1742.223664 1023.89074 1742.223664 1023.803331 1742.223664 903.267187 1742.223664 902.841071 1742.223664 902.404029C1741.961439 875.875588 1730.215939 792.21485 1604.588257 716.639387 1582.878202 686.450721 1564.94856 645.663789 1546.330577 598.463269 1533.197469 565.160679 1535.415457 536.709254 1535.415457 496.304734 1535.415457 466.55311 1529.755764 418.828139 1537.11992 392.616553 1562.096862 303.623905 1625.380523 278.996596 1699.470044 278.996596 1773.526787 278.996596 1836.72304 303.503718 1861.754612 392.332476 1869.140619 418.620544 1863.546484 466.465701 1863.546484 496.304734 1863.546484 536.621846 1865.764471 564.96401 1852.685994 598.201044 1830.112782 655.573713 1808.17328 704.019803 1779.153701 734.973293 1892.555137 755.230183 1969.157649 814.18713 2020.75044 837.077197 2127.290319 884.288644 2127.781991 936.154586 2127.781991 936.154586L2127.781991 1023.857961 1742.223664 1023.89074ZM1650.761729 1023.803331 476.135253 1023.94537 476.135253 903.267187C476.135253 903.267187 476.856372 832.236959 622.719092 767.347169 693.192091 736.011267 797.677874 655.573713 952.292357 627.231549 912.565252 584.838489 882.857332 518.386274 851.586987 439.128733 833.537158 393.370451 836.574599 354.309835 836.574599 298.696258 836.574599 257.854696 828.80618 192.243787 838.934625 156.209686 873.242411 33.892596 960.202815 0.05463 1062.05542 0.05463 1163.864321 0.05463 1250.715464 33.750558 1285.099732 155.870979 1295.293734 191.981562 1287.547167 257.712658 1287.547167 298.696258 1287.547167 354.167796 1290.639238 393.108225 1272.654965 438.811878 1241.614067 517.676081 1211.447253 584.204778 1171.599962 626.772655 1327.449088 654.623147 1432.721546 735.639782 1503.653439 767.09587 1650.062462 832.018438 1650.761729 903.267187 1650.761729 903.267187L1650.761729 1023.803331ZM579.58306 598.201044C560.670074 646.24287 542.139499 687.860181 519.620917 718.365702 396.593634 793.471346 384.957395 876.050405 384.673318 902.338473L384.673318 902.808293 384.673318 903.267187 384.673318 1023.89074 0.065556 1023.94537 0.065556 936.154586C0.065556 936.154586 0.557228 884.463461 106.692844 837.284792 157.990632 814.438429 234.014063 755.918524 346.497711 735.290148 317.598318 704.478697 295.975672 656.120016 273.227644 598.463269 260.116388 565.160679 262.312523 536.709254 262.312523 496.304734 262.312523 466.55311 256.652831 418.828139 264.016987 392.616553 288.983003 303.623905 352.244812 278.996596 426.356185 278.996596 500.412928 278.996596 563.620106 303.503718 588.651679 392.332476 596.070464 418.620544 590.443551 466.465701 590.443551 496.304734 590.443551 536.621846 592.661538 564.96401 579.58306 598.201044Z" p-id="5696" fill="#bcc1cc"></path></svg>